<?xml version="1.0" encoding="UTF-8"?>
<svg version="1.1" xmlns="http://www.w3.org/2000/svg" width="512" height="512">
<path d="M0 0 C0.85508817 -0.00384115 1.71017634 -0.00768229 2.59117627 -0.01163983 C3.53094524 -0.01077335 4.47071421 -0.00990687 5.43896103 -0.00901413 C6.43705567 -0.01198525 7.43515031 -0.01495637 8.46349025 -0.01801753 C11.82362871 -0.02672158 15.18373161 -0.02821422 18.54388046 -0.02970505 C20.94672853 -0.03433202 23.34957586 -0.03935652 25.75242233 -0.04475021 C32.2917615 -0.05788803 38.83109325 -0.06435849 45.37044239 -0.06876087 C49.4538988 -0.07152339 53.53735284 -0.07576078 57.62080765 -0.08026505 C68.92719118 -0.09245825 80.23357281 -0.10275718 91.53996277 -0.10614014 C92.26366123 -0.1063597 92.98735969 -0.10657927 93.7329884 -0.10680549 C94.45841814 -0.10702377 95.18384789 -0.10724204 95.93126035 -0.10746694 C97.40125481 -0.1079104 98.87124928 -0.10835697 100.34124374 -0.10880661 C101.07041169 -0.10902804 101.79957963 -0.10924947 102.55084357 -0.10947761 C114.3635295 -0.11342484 126.17615372 -0.13087631 137.98881581 -0.15416613 C150.11737015 -0.17788568 162.24589352 -0.19034228 174.37447143 -0.19150805 C181.18392786 -0.19242452 187.99330391 -0.19816964 194.80273819 -0.21632767 C201.20816575 -0.23334815 207.61348144 -0.23497673 214.01892662 -0.22618866 C216.3703267 -0.22541685 218.72173489 -0.22977985 221.0731144 -0.23964691 C224.28272967 -0.25232573 227.49180089 -0.24651134 230.7014122 -0.23606491 C231.63225828 -0.24412132 232.56310437 -0.25217772 233.52215791 -0.26047826 C241.92326476 -0.19651435 247.73337509 2.04064896 253.8241539 8.13142776 C257.65025938 13.59032985 259.09151682 19.49877065 258.8241539 26.13142776 C257.59961809 32.36451578 255.1086203 38.67805104 249.8944664 42.57283401 C243.93134689 46.40626799 239.37489534 47.2765783 232.30115891 47.25168228 C231.42275848 47.2525383 230.54435806 47.25339432 229.63933945 47.25427628 C226.67528912 47.25593655 223.7112948 47.25039958 220.7472496 47.24495316 C218.59423798 47.24464695 216.44122626 47.24478009 214.28821468 47.24531841 C208.50994087 47.24554466 202.73168767 47.23973864 196.95341873 47.23270798 C191.53610289 47.22702324 186.11879212 47.22674541 180.70147324 47.22603226 C164.84653072 47.22077988 148.99159205 47.20681879 133.1366539 47.19392776 C97.7235289 47.17330276 62.3104039 47.15267776 25.8241539 47.13142776 C25.8241539 154.38142776 25.8241539 261.63142776 25.8241539 372.13142776 C133.0741539 372.13142776 240.3241539 372.13142776 350.8241539 372.13142776 C350.66577901 301.73488233 350.66577901 301.73488233 350.46380234 231.33845901 C350.44573593 217.72713089 350.44573593 217.72713089 350.442379 211.35628128 C350.43865045 206.90405184 350.42365289 202.45201293 350.40185165 197.99983597 C350.3744061 192.31971192 350.36619094 186.63986476 350.3718648 180.95968056 C350.37067844 178.8757529 350.36275182 176.79181553 350.34729338 174.70794487 C350.32736283 171.8901794 350.33220513 169.07348605 350.34313583 166.25569534 C350.33148518 165.4426796 350.31983452 164.62966385 350.30783081 163.79201126 C350.38084158 156.77748331 352.63994451 151.72886596 357.1366539 146.38142776 C363.74392335 140.84976032 369.17014125 138.83889776 377.8241539 139.13142776 C384.43593661 140.22289666 389.29451019 143.25713725 393.8241539 148.13142776 C396.91024946 152.45196154 397.94564156 156.17064496 397.95837498 161.42752838 C397.96283282 162.2839909 397.96729066 163.14045342 397.97188359 164.02286935 C397.97160705 165.42713036 397.97160705 165.42713036 397.97132492 166.85976028 C397.97500161 167.85800379 397.9786783 168.85624729 397.9824664 169.88474059 C397.99350511 173.23943576 397.99734739 176.59409996 398.00115585 179.94881058 C398.00742029 182.35018385 398.01406707 184.75155616 398.02106857 187.1529274 C398.04029447 194.36529878 398.05089587 201.5776676 398.05979636 208.79005682 C398.06418207 212.18804555 398.06954809 215.58603273 398.07478523 218.98402023 C398.0917943 230.28186215 398.10628853 241.5797031 398.11353397 252.87755585 C398.1154438 255.80804572 398.11736415 258.73853558 398.11931992 261.66902542 C398.11980366 262.39736555 398.1202874 263.12570568 398.1207858 263.87611672 C398.12908642 275.67515049 398.15442527 287.47408289 398.18690059 299.27307239 C398.2199828 311.39149268 398.23798372 323.50986146 398.24117821 335.62832713 C398.24334208 342.43056449 398.25207269 349.23265395 398.27763939 356.03484726 C398.30163509 362.43374533 398.30516478 368.83244952 398.29487801 375.23138618 C398.29438186 377.5791468 398.30072545 379.92692039 398.31443405 382.27464104 C398.33211239 385.48180059 398.32506604 388.68800059 398.31190109 391.89516068 C398.32835496 393.28603736 398.32835496 393.28603736 398.34514123 394.70501256 C398.27194875 402.09935879 396.24577103 407.1716735 391.5741539 412.88142776 C383.24502109 419.69617279 375.61321799 419.7063783 365.31332016 419.64609146 C363.72548795 419.65142012 362.13766078 419.65848765 360.54984319 419.66713852 C356.1975094 419.68575066 351.8455162 419.67946581 347.49316835 419.66898549 C342.79502055 419.66198937 338.09694242 419.6779946 333.39881516 419.69098282 C324.19892827 419.71262162 314.99916508 419.71249614 305.79926111 419.70435727 C298.32097811 419.69805629 290.84273117 419.69919522 283.36444855 419.70562935 C282.29990562 419.706531 281.23536269 419.70743266 280.13856088 419.70836164 C277.97590546 419.71021285 275.81325004 419.71207541 273.65059464 419.7139492 C253.37131049 419.73052746 233.09209592 419.72180845 212.81281595 419.70496362 C194.26432157 419.6902689 175.71598922 419.70489184 157.16751571 419.73373378 C138.11744742 419.76313484 119.06745389 419.77409784 100.01736391 419.76455158 C97.86207288 419.76352904 95.70678184 419.76253443 93.55149078 419.76156807 C92.49107535 419.76109168 91.43065992 419.76061529 90.33811069 419.76012446 C82.87116583 419.75796115 75.40429182 419.7677601 67.93736267 419.7823391 C58.83406773 419.7998652 49.73097931 419.79974111 40.62769248 419.77698744 C35.98436055 419.76584745 31.34139242 419.76267724 26.69807625 419.78128815 C22.4441253 419.79811881 18.19085471 419.79170717 13.93694763 419.76707136 C12.40135574 419.7621961 10.86570871 419.7656819 9.33016308 419.7785588 C0.55216479 419.84683481 -6.77232249 419.32965816 -14.1758461 414.13142776 C-16.42975235 411.77986526 -16.42975235 411.77986526 -17.7383461 409.50642776 C-18.19338516 408.75103714 -18.64842422 407.99564651 -19.11725235 407.21736526 C-21.12379926 403.2635053 -21.3040808 400.15854954 -21.31286049 395.77752972 C-21.31551232 395.12704028 -21.31816414 394.47655084 -21.32089633 393.80634961 C-21.32859809 391.61150753 -21.32914883 389.41672131 -21.32974625 387.22186661 C-21.3337603 385.63835513 -21.33819843 384.05484468 -21.3430258 382.47133547 C-21.35500367 378.10781448 -21.36064257 373.74430454 -21.36520696 369.38077033 C-21.37115851 364.67914899 -21.38276953 359.9775409 -21.39349747 355.2759285 C-21.41803257 343.91478203 -21.43265068 332.55363116 -21.44555753 321.19246635 C-21.4492688 317.98406777 -21.45324209 314.77566962 -21.4573102 311.56727147 C-21.48254713 291.64813718 -21.50460262 271.72900221 -21.51703835 251.80985546 C-21.5199681 247.19479685 -21.52292975 242.57973827 -21.52594376 237.96467972 C-21.52668981 236.81761264 -21.52743586 235.67054556 -21.52820452 234.48871887 C-21.54085768 215.90758814 -21.57407947 197.32655311 -21.61574559 178.74546712 C-21.65816335 159.67297391 -21.68173324 140.6005297 -21.68695891 121.52798945 C-21.69037331 110.8177486 -21.70213188 100.10765728 -21.73506165 89.39746284 C-21.76306116 80.2757725 -21.77406191 71.15426231 -21.76286618 62.03253233 C-21.75767922 57.37909131 -21.7605688 52.72602759 -21.78533173 48.07264137 C-21.80782959 43.80926794 -21.80708037 39.54654273 -21.78812785 35.28315789 C-21.78532858 33.74403997 -21.79092247 32.20487804 -21.80594079 30.66583084 C-21.88643322 21.8769766 -21.38603087 14.5431991 -16.1758461 7.13142776 C-13.8242836 4.87752151 -13.8242836 4.87752151 -11.5508461 3.56892776 C-10.41776016 2.88636917 -10.41776016 2.88636917 -9.2617836 2.19002151 C-6.07308962 0.57178918 -3.52529833 0.00594369 0 0 Z " fill="#000000" transform="translate(21.175846099853516,92.86857223510742)"/>
<path d="M0 0 C0.80984339 -0.00523668 1.61968677 -0.01047336 2.45407087 -0.01586872 C5.16533827 -0.03085971 7.87641679 -0.03157368 10.58772278 -0.03224182 C12.53280455 -0.03986402 14.4778833 -0.04829162 16.42295837 -0.0574646 C21.7062289 -0.07941314 26.98944155 -0.08820924 32.27275252 -0.09329104 C35.57531848 -0.09693483 38.87786928 -0.10317508 42.18042946 -0.11029243 C53.70731395 -0.13479019 65.23415343 -0.1478391 76.76106262 -0.15138245 C87.49642818 -0.1550158 98.2315075 -0.18489611 108.96678561 -0.22678703 C118.18990626 -0.2615122 127.41293219 -0.27693129 136.63611776 -0.27762848 C142.14178028 -0.27842067 147.64715136 -0.28713239 153.1527462 -0.31562614 C158.33456681 -0.34184404 163.51585516 -0.34399101 168.69771194 -0.3279705 C170.59473267 -0.32615887 172.49178425 -0.33282086 174.38873863 -0.34878922 C193.25141034 -0.49783332 193.25141034 -0.49783332 200.91120911 5.27415466 C203.16511536 7.62571716 203.16511536 7.62571716 204.47370911 9.89915466 C204.92874817 10.65454529 205.38378723 11.40993591 205.85261536 12.18821716 C208.05040901 16.51892495 208.05952984 20.39577575 208.05838013 25.13589478 C208.06205682 25.94544044 208.0657335 26.75498611 208.06952161 27.58906347 C208.0805652 30.31116729 208.08440344 33.03323295 208.08821106 35.75535583 C208.09447522 37.70338564 208.10112198 39.65141424 208.10812378 41.59944153 C208.12553829 46.89921463 208.13608689 52.19897871 208.14432931 57.49877334 C208.14947878 60.80968301 208.15555456 64.12058988 208.16184044 67.43149757 C208.18089426 77.7898594 208.19512468 88.14821409 208.20345241 98.50659007 C208.21322485 110.46472074 208.23954387 122.42266631 208.2799533 134.38073176 C208.31011203 143.62245599 208.32492108 152.86412715 208.32823342 162.10589963 C208.33058427 167.6260237 208.3395493 173.14595006 208.3646946 178.66602135 C208.38797579 183.86087267 208.39220824 189.05539613 208.38193321 194.2502861 C208.38143775 196.15459471 208.38776127 198.05891945 208.40148926 199.96317863 C208.41921582 202.56834259 208.41209858 205.17233085 208.3989563 207.77749634 C208.40992554 208.52644596 208.42089479 209.27539558 208.43219644 210.04704064 C208.3537494 216.51298255 206.21274619 221.64774853 201.94636536 226.51634216 C201.29538879 227.05517029 200.64441223 227.59399841 199.97370911 228.14915466 C199.32531067 228.70345154 198.67691223 229.25774841 198.00886536 229.82884216 C192.04766388 233.93618769 185.93706392 234.12180133 178.91120911 233.27415466 C170.91931539 230.70217782 166.34767834 226.65857386 162.30932617 219.39157104 C160.04576864 213.92257698 160.47197707 208.09421033 160.47883606 202.27049255 C160.46864441 200.97224548 160.45845276 199.67399841 160.44795227 198.33641052 C160.4204717 194.79352703 160.41111003 191.25080403 160.4050982 187.70782781 C160.3956911 183.99886977 160.3694859 180.29003053 160.34509277 176.58114624 C160.30148813 169.5654999 160.27290419 162.54987669 160.24976939 155.53413624 C160.22268527 147.54373088 160.1787758 139.55344537 160.13348067 131.56312573 C160.04072089 115.13352954 159.9690006 98.70391186 159.91120911 82.27415466 C159.40391846 82.78296419 158.89662782 83.29177372 158.37396473 83.81600171 C128.31503271 113.96442424 98.24568008 144.10241891 68.16273927 174.22688581 C64.55155736 177.84307062 60.94046272 181.45934255 57.329422 185.07566833 C56.61052001 185.79561956 55.89161802 186.51557079 55.15093113 187.25733873 C43.50708982 198.91859057 31.8703336 210.58688809 20.23617535 222.2577996 C8.3004469 234.23091935 -3.64285209 246.19644789 -15.59322923 258.15494698 C-22.96844229 265.53565155 -30.33766961 272.92223044 -37.69937687 280.31640651 C-42.74648496 285.38464009 -47.80092039 290.44548863 -52.86120094 295.50057022 C-55.78155009 298.41835456 -58.69853799 301.33930529 -61.60687828 304.26906395 C-64.2700845 306.9517396 -66.94237456 309.62500554 -69.62215882 312.29111817 C-71.04731582 313.7137857 -72.46260222 315.14632001 -73.87750107 316.57919008 C-80.30493498 322.94664368 -85.14606775 326.70017336 -94.52629089 326.71165466 C-101.51487821 326.5115233 -105.9758879 325.23264778 -111.05754089 320.40306091 C-116.11665556 314.91889768 -118.37299868 310.54280432 -118.46379089 302.96165466 C-118.49215027 301.89302185 -118.52050964 300.82438904 -118.54972839 299.72337341 C-117.28775747 290.27998083 -110.98054115 284.60296262 -104.4964447 278.20079041 C-103.50218631 277.20478573 -102.50880821 276.20790166 -101.51623178 275.21022081 C-98.79780689 272.48288349 -96.06712176 269.76812316 -93.33421087 267.05531216 C-90.38493654 264.12335226 -87.44727245 261.1797992 -84.50816345 258.23765564 C-79.41824324 253.1456406 -74.32106539 248.06098593 -69.21884918 242.98129272 C-61.8419692 235.63695572 -54.47619227 228.2815652 -47.11305645 220.92345196 C-35.16584098 208.98498552 -23.20972489 197.05547443 -11.24797058 185.13157654 C0.3700025 173.55033365 11.98375647 161.96488653 23.59187317 150.37376404 C24.30770121 149.65898689 25.02352926 148.94420974 25.76104906 148.20777267 C29.35221243 144.62182955 32.94329314 141.03580365 36.53433275 137.4497366 C66.31381975 107.71169944 96.10777062 77.98818638 125.91120911 48.27415466 C125.23498064 48.2736099 124.55875217 48.27306513 123.86203194 48.27250385 C107.37659137 48.25750971 90.89147267 48.21495689 74.40619087 48.14206409 C66.43387443 48.10747143 58.46172987 48.08206612 50.48933411 48.07859802 C43.53724014 48.07555013 36.58545274 48.05494935 29.63347709 48.01363009 C25.95538281 47.99237269 22.27772355 47.97966167 18.59956741 47.98800087 C14.48443534 47.99700086 10.37045545 47.96679711 6.25544739 47.93357849 C5.04775192 47.94220413 3.84005646 47.95082977 2.59576416 47.9597168 C-5.56790084 47.84954852 -12.40243402 46.36559022 -18.70048332 40.86706257 C-24.38313761 34.5753402 -25.68493687 28.42601749 -25.42863464 20.20384216 C-24.55962019 12.71233824 -20.77792515 8.4994583 -15.18644714 3.71946716 C-10.30341755 0.35499612 -5.80179808 -0.01861015 0 0 Z " fill="#000000" transform="translate(304.0887908935547,-0.2741546630859375)"/>
</svg>
