<?xml version="1.0" encoding="UTF-8"?>
<svg version="1.1" xmlns="http://www.w3.org/2000/svg" width="512" height="512">
<path d="M0 0 C1.0515477 -0.0066568 2.1030954 -0.0133136 3.18650818 -0.02017212 C5.39914216 -0.03023136 7.61180607 -0.03499124 9.82446289 -0.03466797 C13.15108266 -0.03901997 16.47635022 -0.0753555 19.80273438 -0.11328125 C39.08180777 -0.21622549 55.37579765 2.63826913 72.62109375 11.3359375 C73.69101562 11.87089844 74.7609375 12.40585938 75.86328125 12.95703125 C83.90838554 17.31392539 90.13772263 22.95607448 96.62109375 29.3359375 C97.471875 30.17125 98.32265625 31.0065625 99.19921875 31.8671875 C116.86573349 49.87563479 124.25799884 71.7995549 127.62109375 96.3359375 C127.86143703 98.00312572 128.1031716 99.67011388 128.34619141 101.33691406 C128.85461605 104.84254489 129.35309445 108.34939816 129.84472656 111.85742188 C130.50552517 116.5537592 131.19758725 121.24491665 131.90008545 125.93518066 C132.46852697 129.73201985 133.02945572 133.52994598 133.58886719 137.328125 C133.8574143 139.14677498 134.12787907 140.96514296 134.40039062 142.78320312 C138.41490699 169.68645461 138.41490699 169.68645461 133.62109375 176.3359375 C114.98211669 196.27530831 78.29965911 200.14580673 52.62109375 202.3359375 C51.62424561 202.42351318 50.62739746 202.51108887 49.6003418 202.60131836 C37.80068639 203.51816966 26.01279021 203.53576422 14.18359375 203.5234375 C13.11495087 203.52283325 12.04630798 203.522229 10.94528198 203.52160645 C-4.2502135 203.49824958 -19.29567198 203.3631947 -34.37890625 201.3359375 C-35.38244141 201.20703125 -36.38597656 201.078125 -37.41992188 200.9453125 C-60.5017759 197.89596665 -90.2536871 193.49470927 -106.94140625 175.5859375 C-112.82224287 166.38114975 -108.60825554 152.36169865 -107.11328125 142.1640625 C-106.87582264 140.51183987 -106.63879071 138.85955586 -106.40216064 137.20721436 C-105.90621055 133.75716925 -105.40457767 130.30801106 -104.89892578 126.859375 C-104.2577879 122.48301345 -103.63171552 118.10465428 -103.0100975 113.72548294 C-102.52406703 110.31489941 -102.02943784 106.90560259 -101.5324173 103.49660492 C-101.29854054 101.88498418 -101.06730245 100.27297784 -100.83898163 98.66056061 C-97.0804163 72.21877572 -89.20548033 49.9594036 -70.37890625 30.3359375 C-69.72019531 29.62566406 -69.06148437 28.91539062 -68.3828125 28.18359375 C-50.82868336 9.7817803 -25.13023554 0.05704641 0 0 Z " fill="#000000" transform="translate(242.37890625,239.6640625)"/>
<path d="M0 0 C14.97906352 12.90749091 26.69469142 31.78705989 28.21948242 51.89428711 C29.18418695 77.65412262 24.27538301 98.22697125 7 118 C-8.54169366 134.34905437 -29.65952173 142.79043686 -52 143.375 C-74.34167922 142.79040544 -94.28439197 134.30482443 -110.34765625 118.72265625 C-127.55800958 100.50861165 -132.70067064 79.68752633 -132.3046875 55.40625 C-131.68308805 37.73433184 -123.90435491 20.97415353 -112 8 C-111.33613281 7.24460937 -110.67226562 6.48921875 -109.98828125 5.7109375 C-81.47127797 -24.96724348 -31.84434719 -25.67044314 0 0 Z " fill="#000000" transform="translate(308,87)"/>
<path d="M0 0 C3.27696429 2.42458652 6.31559912 5.06525133 9.31152344 7.82519531 C9.94058594 8.37433594 10.56964844 8.92347656 11.21777344 9.48925781 C28.06338333 25.03316149 33.93925486 46.99045137 38.06152344 68.70019531 C38.39615601 70.44840576 38.39615601 70.44840576 38.73754883 72.23193359 C41.74797127 88.70816624 41.74797127 88.70816624 37.75292969 95.82128906 C26.21661785 111.85957626 3.74299284 118.46575514 -14.81347656 121.70019531 C-17.43561136 122.11810748 -20.0549805 122.47904704 -22.68847656 122.82519531 C-24.14060547 123.02048828 -24.14060547 123.02048828 -25.62207031 123.21972656 C-33.6129645 124.11024226 -41.66055834 123.91584935 -49.68847656 123.82519531 C-50.23269866 120.47143885 -50.77319087 117.11708798 -51.31347656 113.76269531 C-51.48951416 112.67666016 -51.66555176 111.590625 -51.84692383 110.47167969 C-52.85731288 104.18941435 -53.83158463 97.90459751 -54.746521 91.60780334 C-55.24279943 88.19519925 -55.74792044 84.78391968 -56.25286865 81.37258911 C-56.49785476 79.69994676 -56.73859348 78.02667571 -56.97467041 76.35275269 C-59.02652636 61.82391213 -61.88813342 47.33847263 -68.43847656 34.07519531 C-68.77645264 33.37749023 -69.11442871 32.67978516 -69.46264648 31.9609375 C-74.89940142 21.06500801 -82.34854145 11.74879084 -90.30566406 2.60253906 C-92.19950436 0.39512848 -93.9838572 -1.8210753 -95.68847656 -4.17480469 C-65.49471641 -20.76478279 -28.45009214 -19.79494555 0 0 Z " fill="#000000" transform="translate(445.6884765625,255.1748046875)"/>
<path d="M0 0 C-0.54853638 0.63723999 -0.54853638 0.63723999 -1.1081543 1.28735352 C-2.74194367 3.18887455 -4.37182349 5.09367082 -6 7 C-6.48678223 7.56960449 -6.97356445 8.13920898 -7.47509766 8.72607422 C-29.87487353 35.17892271 -36.5036291 63.52000395 -41.1875 97.25 C-41.71874422 101.02479469 -42.25236726 104.79923927 -42.78791809 108.57342529 C-43.11812958 110.90572664 -43.44546973 113.23843679 -43.76957703 115.57159424 C-43.91675674 116.62079041 -44.06393646 117.66998657 -44.21557617 118.75097656 C-44.34340988 119.67090393 -44.47124359 120.5908313 -44.60295105 121.53863525 C-44.95766074 123.73753269 -45.42032482 125.85091632 -46 128 C-75.14500278 128.71472759 -108.10887729 124.51078413 -130.3359375 103.79296875 C-133.91641282 99.93513267 -136.00135266 96.58831762 -135.99853516 91.19702148 C-133.57735324 63.25779924 -127.97971282 37.4319589 -109 16 C-108.44699219 15.36320312 -107.89398438 14.72640625 -107.32421875 14.0703125 C-80.43143111 -14.89115112 -33.42057112 -19.4119485 0 0 Z " fill="#000000" transform="translate(162,251)"/>
<path d="M0 0 C13.62949761 9.79277576 22.00546423 22.8993272 25.2890625 39.22265625 C27.87308638 55.22745413 24.28854379 71.53110912 14.98046875 84.86328125 C9.80268401 91.61009167 4.08729366 96.5593201 -3.0859375 101.09375 C-3.71757812 101.50238281 -4.34921875 101.91101563 -5 102.33203125 C-18.67562724 110.13376573 -35.39581479 110.8281277 -50.27197266 106.9284668 C-62.44248922 103.42402975 -74.06996821 95.85820406 -81.0859375 85.09375 C-81.00153736 80.77527628 -78.76840169 77.25806022 -76.8359375 73.46875 C-69.92836166 59.34691193 -66.88911647 43.99110107 -66.8984375 28.34375 C-66.89706787 27.36672119 -66.89569824 26.38969238 -66.89428711 25.38305664 C-66.93408563 19.4943491 -67.26762072 13.94513464 -68.74609375 8.21484375 C-69.17651579 5.52841656 -68.9214598 3.68090027 -68.0859375 1.09375 C-51.25681899 -15.5103803 -17.90500578 -11.1492912 0 0 Z " fill="#000000" transform="translate(428.0859375,120.90625)"/>
<path d="M0 0 C1.44403198 0.01135986 1.44403198 0.01135986 2.91723633 0.02294922 C14.18440021 0.28257439 26.2308577 3.17304775 35.1875 10.4375 C36.42253467 13.92266633 36.15766919 16.35704031 35.25 19.875 C30.72947859 43.06995124 35.54609089 67.4380948 46.625 88.0625 C48.36080808 91.81184546 48.44763122 92.63992275 47.1875 96.4375 C37.42174367 109.4797846 22.79477432 115.91765753 7.1875 118.4375 C-8.54047943 120.20344857 -24.40263107 115.18913615 -36.9375 105.75 C-50.53151996 94.37541187 -57.19800426 79.44610444 -59.19921875 62.08203125 C-59.75830582 46.56254533 -54.56619928 31.78941686 -44.375 20.125 C-42.87236712 18.54498902 -41.35294601 16.98066764 -39.8125 15.4375 C-39.24789062 14.86128906 -38.68328125 14.28507812 -38.1015625 13.69140625 C-27.88678295 4.09947911 -13.72960295 -0.15243017 0 0 Z " fill="#000000" transform="translate(116.8125,111.5625)"/>
</svg>
