<?xml version="1.0" encoding="UTF-8"?>
<svg version="1.1" xmlns="http://www.w3.org/2000/svg" width="512" height="512">
<path d="M0 0 C2.39459394 -0.00678423 4.78918266 -0.01569186 7.1837616 -0.02655029 C12.9864241 -0.04690226 18.78872252 -0.04403525 24.59139574 -0.02948709 C29.31163388 -0.01814754 34.03178153 -0.01668419 38.75202942 -0.02210617 C39.42647816 -0.02287234 40.10092689 -0.0236385 40.79581347 -0.02442788 C42.16638405 -0.02602668 43.5369546 -0.02764775 44.90752512 -0.02929084 C57.72836071 -0.04351347 70.54901689 -0.02721063 83.36982304 -0.00028901 C94.34608506 0.02204667 105.32208259 0.01816556 116.29833984 -0.00488281 C129.07651219 -0.03170275 141.85452772 -0.0421405 154.63272429 -0.02682149 C155.99796261 -0.02522892 157.36320096 -0.02365706 158.72843933 -0.02210617 C159.73575371 -0.0209491 159.73575371 -0.0209491 160.76341787 -0.01976866 C165.47234752 -0.01547017 170.18117684 -0.02269799 174.89009094 -0.03450394 C181.24000899 -0.04900318 187.58943015 -0.03882668 193.93929482 -0.01003265 C196.26236969 -0.00345105 198.58548675 -0.00526902 200.90854454 -0.01634598 C218.26296921 -0.0914341 231.81611008 1.39562677 245.24023438 13.64697266 C257.19966125 26.75123356 258.98810219 40.11354702 258.88720703 57.00048828 C258.89399529 58.92218348 258.90290516 60.84387216 258.91375732 62.76554871 C258.93641353 67.94953521 258.92777112 73.13302022 258.9118619 78.31701469 C258.89913166 83.76282904 258.91096269 89.20860276 258.91879272 94.65441895 C258.92786862 103.79670862 258.91595552 112.93879581 258.89208984 122.08105469 C258.86488266 132.62457143 258.87369827 143.1676046 258.90122187 153.71110964 C258.92397072 162.79179642 258.92708483 171.87233832 258.91402853 180.95304441 C258.90626573 186.36418798 258.90510468 191.77510485 258.92171097 197.18623352 C258.93624075 202.27548475 258.92597952 207.36411741 258.89723969 212.45330238 C258.89067411 214.31195872 258.89244814 216.17066784 258.90355301 218.0293026 C258.98938247 233.86440377 256.34235131 246.48208897 245.24023438 258.64697266 C231.93224768 270.79232712 218.50703975 272.38697962 201.37695312 272.13525391 C199.48982183 272.12590766 197.60267825 272.11880014 195.7155304 272.11381531 C190.79161014 272.09488786 185.86844845 272.04591316 180.94482422 271.99029541 C175.90342464 271.9387922 170.86190034 271.91623545 165.8203125 271.89111328 C155.95995645 271.837778 146.10015893 271.75264192 136.24023438 271.64697266 C136.69927658 272.82158554 137.15831879 273.99619843 137.63127136 275.20640564 C140.89896667 283.58001996 144.14703695 291.95653651 147.22851562 300.40087891 C147.56905975 301.3294017 147.90960388 302.2579245 148.26046753 303.21458435 C149.35951065 306.21228945 150.45613091 309.21087434 151.55273438 312.20947266 C152.3387648 314.35472229 153.12498312 316.49990309 153.91137695 318.64501953 C155.54155401 323.09219142 157.17093212 327.53965485 158.79980469 331.98730469 C161.53861375 339.46365679 164.28457243 346.93737342 167.0327301 354.41029358 C168.91124076 359.51873371 170.78771803 364.62789704 172.65893555 369.73901367 C175.94227009 378.70308622 179.23603985 387.66212051 182.60292053 396.59521484 C184.02889652 400.38186603 185.44436294 404.1724031 186.85879517 407.96337891 C187.52074389 409.72841492 188.18790007 411.49150824 188.86068726 413.25244141 C189.78437551 415.67085076 190.68985067 418.09538681 191.59179688 420.52197266 C191.99814613 421.56393799 191.99814613 421.56393799 192.41270447 422.62695312 C194.66561706 428.78451264 195.29068159 434.71677779 193.05273438 440.95947266 C190.68201247 444.47468099 188.02742675 446.75337647 184.24023438 448.64697266 C179.28541344 449.19057711 175.36897586 449.2113434 170.86523438 446.95947266 C165.2685238 442.02903715 162.98667795 437.04454007 160.54492188 430.16259766 C160.20026886 429.21604309 159.85561584 428.26948853 159.5005188 427.29425049 C158.36327119 424.16494374 157.23940819 421.03099717 156.11523438 417.89697266 C155.31416559 415.68631829 154.51206502 413.47603757 153.70898438 411.26611328 C152.04058726 406.67250125 150.37665257 402.0773093 148.71582031 397.48095703 C145.29580384 388.02642248 141.82203513 378.59175034 138.34811401 369.15692139 C136.49058194 364.11027542 134.63709728 359.06214339 132.78320312 354.01416016 C132.03500835 351.97737084 131.28679861 349.94058703 130.53857422 347.90380859 C128.5534952 342.49986998 126.56860526 337.09586193 124.58377075 331.6918335 C122.9630396 327.27915745 121.34223997 322.86650656 119.72143555 318.45385742 C118.95772968 316.37460558 118.1940564 314.29534177 117.43041992 312.21606445 C116.71092726 310.25698918 115.99135501 308.29794313 115.271698 306.33892822 C114.58520349 304.46973039 113.89909673 302.60039009 113.21340942 300.730896 C111.54283538 296.17874135 109.86339461 291.63018315 108.16748047 287.08740234 C107.83942917 286.20587494 107.51137787 285.32434753 107.17338562 284.41610718 C106.55355452 282.75170159 105.93114176 281.08825439 105.30574036 279.42593384 C103.24023438 273.87086104 103.24023438 273.87086104 103.24023438 271.64697266 C99.94023437 271.64697266 96.64023437 271.64697266 93.24023438 271.64697266 C93.11424866 272.35774963 92.98826294 273.06852661 92.85845947 273.80084229 C92.22641249 276.71060464 91.35597488 279.38377109 90.34863281 282.18505859 C89.95520691 283.284216 89.56178101 284.38337341 89.15643311 285.51583862 C88.72518127 286.7089566 88.29392944 287.90207458 87.84960938 289.13134766 C87.39275032 290.40258781 86.93615264 291.67392193 86.47979736 292.94534302 C85.24545224 296.38087833 84.00631345 299.81466645 82.76605225 303.24806976 C81.98795476 305.40328685 81.21127051 307.55900794 80.43505859 309.71490479 C72.27738071 332.37091455 64.0061619 354.98348061 55.62963867 377.55957031 C51.59799593 388.43861846 47.61922167 399.32962289 43.80664062 410.28759766 C43.46136322 411.27531158 43.11608582 412.26302551 42.76034546 413.28067017 C41.16430987 417.84805015 39.58276885 422.41925846 38.03125 427.00195312 C37.47786955 428.59479186 36.92387196 430.18741638 36.36914062 431.77978516 C36.13876602 432.48113586 35.90839142 433.18248657 35.67103577 433.90509033 C33.66955726 439.56486404 30.51879895 444.76157825 25.19728088 447.82180786 C21.35499646 449.44186023 17.31630885 449.16293145 13.24023438 448.64697266 C8.39907461 446.31604388 5.53722316 443.5059874 3.24023438 438.64697266 C2.19594312 430.38243338 4.18097441 423.54150044 7.09570312 415.88916016 C7.50471863 414.7723436 7.91373413 413.65552704 8.33514404 412.50486755 C9.45024884 409.47029378 10.58076637 406.44203872 11.71842575 403.41586685 C12.91997785 400.20765471 14.10063983 396.99177047 15.28344727 393.77661133 C17.2603508 388.41055923 19.24877784 383.04891603 21.24609375 377.69042969 C24.1222821 369.97317531 26.97403889 362.24712427 29.81835938 354.51806641 C30.71947355 352.06973957 31.62059652 349.62141598 32.52172852 347.1730957 C32.96147003 345.97824554 33.40121155 344.78339539 33.85427856 343.55233765 C35.17017813 339.97998605 36.48882899 336.408662 37.80834961 332.83764648 C43.71235387 316.85330203 49.52763751 300.83930655 55.24389648 284.78686523 C55.51187546 284.03528137 55.77985443 283.28369751 56.05595398 282.50933838 C56.54802916 281.1283173 57.03892964 279.74687684 57.52839661 278.3649292 C58.3463039 276.06792315 59.148629 273.8301834 60.24023438 271.64697266 C53.31023437 271.64697266 46.38023437 271.64697266 39.24023438 271.64697266 C39.57023437 269.00697266 39.90023437 266.36697266 40.24023438 263.64697266 C40.15467285 262.4077002 40.06911133 261.16842773 39.98095703 259.89160156 C38.84007714 242.77787846 48.7120641 227.89263445 56.43157959 213.27185059 C58.79512441 208.77925071 61.11550163 204.26425114 63.43737221 199.75000954 C65.24283188 196.23997472 67.05551426 192.73457537 68.8946228 189.24203491 C76.56760356 174.59089214 79.78590613 163.10653713 76.24023438 146.64697266 C74.90718747 143.06558255 73.23886169 139.89627473 71.24023438 136.64697266 C70.66273438 135.59509766 70.08523438 134.54322266 69.49023438 133.45947266 C62.18886618 124.33276241 50.82435883 118.08006022 39.24023438 116.64697266 C26.60153716 115.4942576 14.95445777 119.53767946 5.24023438 127.52197266 C1.52034737 131.05284635 -1.07989927 134.50698713 -3.58007812 138.97900391 C-4.08717819 139.88497566 -4.08717819 139.88497566 -4.60452271 140.80924988 C-8.89824324 148.5692934 -12.75815838 156.55180475 -16.63964844 164.52319336 C-17.60957092 166.5109678 -18.5866288 168.4951077 -19.56445312 170.47900391 C-20.13147949 171.64149658 -20.69850586 172.80398926 -21.28271484 174.00170898 C-22.75976562 176.64697266 -22.75976562 176.64697266 -24.75976562 177.64697266 C-27.50543066 176.45764841 -30.13467981 175.20249402 -32.79492188 173.84228516 C-33.58877792 173.44371307 -34.38263397 173.04514099 -35.20054626 172.63449097 C-36.88108857 171.78899939 -38.55971657 170.93969388 -40.23657227 170.08691406 C-42.81139723 168.77749972 -45.39139115 167.47879418 -47.97265625 166.18212891 C-49.60122321 165.36113244 -51.22948883 164.53953789 -52.85742188 163.71728516 C-53.63344254 163.32558136 -54.4094632 162.93387756 -55.20899963 162.53030396 C-60.64149686 159.76524142 -60.64149686 159.76524142 -61.75976562 158.64697266 C-61.85968567 157.2066055 -61.89051604 155.7613764 -61.89347839 154.31755066 C-61.89774338 153.38271851 -61.90200836 152.44788635 -61.90640259 151.48472595 C-61.9059494 150.45054031 -61.90549622 149.41635468 -61.9050293 148.35083008 C-61.90838791 147.26780609 -61.91174652 146.1847821 -61.91520691 145.06893921 C-61.92475797 141.46342847 -61.92666274 137.85796404 -61.92773438 134.25244141 C-61.93094639 131.74913005 -61.93431042 129.24581889 -61.93782043 126.74250793 C-61.9438237 121.47897033 -61.94570206 116.2154445 -61.94506836 110.9519043 C-61.94453633 105.55994702 -61.95152219 100.16806179 -61.96557617 94.77612305 C-61.98230384 88.2651101 -61.98912186 81.7541617 -61.98845863 75.24312782 C-61.98963446 72.76618396 -61.99403384 70.28923935 -62.001791 67.81230736 C-62.01166617 64.33028282 -62.00868219 60.8484838 -62.00268555 57.36645508 C-62.00830505 56.35453598 -62.01392456 55.34261688 -62.01971436 54.30003357 C-61.95022289 38.29847735 -58.22395162 25.48245883 -47.50195312 13.37353516 C-34.04229027 0.03458677 -17.7026377 -0.08441089 0 0 Z M5.24023438 72.64697266 C3.88430206 76.71476959 3.70947853 80.39365525 4.24023438 84.64697266 C6.50441327 89.01360337 9.13824055 92.62008504 13.94703293 94.21199322 C16.96944383 94.78529069 19.85414707 94.78320916 22.93145752 94.79414368 C23.60301683 94.79782036 24.27457614 94.80149705 24.96648574 94.80528516 C27.21562068 94.81629364 29.46470937 94.82016099 31.71386719 94.82397461 C33.32707363 94.83024137 34.94027863 94.83688836 36.55348206 94.84388733 C41.85009765 94.86490368 47.14671346 94.875287 52.44335938 94.88525391 C54.2683285 94.88930228 56.09329748 94.89341922 57.9182663 94.89760399 C66.49221018 94.91664982 75.06614548 94.93088249 83.64010644 94.93921596 C93.53069594 94.94898844 103.42106166 94.97531077 113.31157231 95.01571685 C120.96097351 95.04589286 128.6103106 95.06068622 136.25977015 95.06399697 C140.8263904 95.06634562 145.3927714 95.07528213 149.9593277 95.10045815 C154.25710435 95.12377014 158.55448474 95.12795962 162.85230827 95.11769676 C164.42604581 95.11720206 165.99980306 95.12350314 167.57348061 95.13725281 C179.01134788 95.28063975 179.01134788 95.28063975 189.24023438 90.64697266 C192.12260647 87.23839879 193.4665346 84.0577534 193.74023438 79.58447266 C193.01600197 73.88114248 191.00320947 71.04186088 186.53536224 67.50684357 C182.72263734 65.35482506 180.49418004 65.14436011 176.14318848 65.13903809 C175.45217497 65.13279812 174.76116147 65.12655816 174.04920816 65.12012911 C171.74599452 65.10424166 169.44384549 65.1167856 167.140625 65.12939453 C165.48446538 65.12397148 163.82831059 65.1168478 162.17216492 65.1081543 C157.68247049 65.08993963 153.19314428 65.09698074 148.70344353 65.10967064 C144.0017079 65.11980794 139.30000349 65.11040293 134.5982666 65.10412598 C126.70298613 65.0968517 118.80785539 65.10643151 110.91259766 65.12548828 C101.78865576 65.14725661 92.66507141 65.14020509 83.54113817 65.11818266 C75.70316527 65.1000224 67.86529991 65.0974734 60.02731276 65.10793734 C55.34792693 65.11416882 50.66870909 65.11501738 45.98933411 65.10179138 C41.58970745 65.09022438 37.19054113 65.09827399 32.79096413 65.12136841 C31.17770463 65.12665098 29.56440631 65.12514942 27.95116234 65.11631775 C25.74601457 65.10536003 23.54233489 65.11912609 21.33728027 65.13903809 C20.10433983 65.14054619 18.87139938 65.14205429 17.60109711 65.14360809 C12.54283734 65.90119593 8.49134336 68.71141967 5.24023438 72.64697266 Z M99.68164062 127.32275391 C97.40395466 131.56431133 96.53882829 134.73713003 97.24023438 139.64697266 C99.05654258 144.75198094 101.48714947 147.11450046 106.27470207 149.78192329 C109.43033156 151.17074569 112.31231814 151.14823795 115.73266602 151.14868164 C116.44581467 151.15408463 117.15896332 151.15948761 117.89372253 151.16505432 C120.22971264 151.17746927 122.56445272 151.16110223 124.90039062 151.14306641 C126.53511113 151.14322155 128.169832 151.14471303 129.80455017 151.1474762 C133.2215105 151.14885688 136.6380494 151.13635666 140.05493164 151.11352539 C144.42514514 151.08511895 148.7946602 151.08788851 153.16492558 151.1006155 C156.53736798 151.10758397 159.90965013 151.0997705 163.28207207 151.08735847 C164.89314598 151.08285689 166.50423717 151.08249583 168.11531258 151.08642387 C170.36963055 151.08934825 172.62299953 151.07277294 174.87719727 151.05102539 C176.15736221 151.04562241 177.43752716 151.04021942 178.75648499 151.03465271 C183.8692105 150.46569625 187.11375097 148.89523806 190.55273438 145.08447266 C193.64579781 140.61671437 193.89837725 137.00227222 193.24023438 131.64697266 C190.5866494 126.52934448 187.70905611 123.46991324 182.24023438 121.64697266 C179.90126634 121.53674855 177.55926868 121.48788311 175.21777344 121.4699707 C174.50681519 121.46339951 173.79585693 121.45682831 173.06335449 121.45005798 C170.710855 121.43035085 168.35841931 121.4186674 166.00585938 121.40869141 C165.20093803 121.40461588 164.39601669 121.40054035 163.5667038 121.39634132 C159.30521401 121.3754903 155.04375631 121.36118515 150.78222656 121.35180664 C146.38956305 121.34075196 141.99740745 121.30636054 137.60492325 121.26663494 C134.21961553 121.24043707 130.83442818 121.23211195 127.44902802 121.22852516 C125.83036626 121.22366636 124.21170963 121.21207249 122.59314728 121.19348717 C120.32178498 121.16902982 118.05172823 121.17007212 115.78027344 121.17700195 C114.49026428 121.17113571 113.20025513 121.16526947 111.87115479 121.15922546 C106.96267912 121.81858864 103.12567112 123.61977375 99.68164062 127.32275391 Z M99.88769531 183.20861816 C97.1858536 187.33122622 96.62772966 190.8344356 97.24023438 195.64697266 C99.22867555 200.98436739 102.14691085 204.1003109 107.24023438 206.64697266 C109.6189143 206.76043415 111.96902742 206.81475535 114.34863281 206.82397461 C115.08055847 206.83054581 115.81248413 206.837117 116.56658936 206.84388733 C118.9942637 206.86363329 121.4218761 206.8752868 123.84960938 206.88525391 C125.09333691 206.8913672 125.09333691 206.8913672 126.36219025 206.89760399 C130.75219983 206.91847195 135.14217809 206.93276955 139.53222656 206.94213867 C144.06289372 206.95319452 148.59306856 206.9875825 153.12356186 207.02731037 C156.61005555 207.05348219 160.09643216 207.06183107 163.58301544 207.06542015 C165.25274219 207.070286 166.92246372 207.08190002 168.59209442 207.10045815 C170.93320945 207.12485876 173.27305402 207.12388331 175.61425781 207.11694336 C176.3002002 207.12975342 176.98614258 207.14256348 177.69287109 207.15576172 C182.64792512 207.10240377 185.41150573 205.7171932 189.24023438 202.64697266 C192.54965088 198.8150167 193.93049174 195.81899148 193.61523438 190.66650391 C192.64433159 185.43778789 190.45739844 182.48793614 186.09960938 179.47705078 C179.52713338 176.38433899 172.09610356 177.0729529 164.99023438 177.11572266 C163.4065731 177.11302356 161.82291345 177.10913767 160.23925781 177.10412598 C156.93082804 177.09825049 153.62283219 177.10673028 150.31445312 177.12548828 C146.09118096 177.14827718 141.86892584 177.13514352 137.64569092 177.11119843 C134.3786667 177.09668723 131.11188034 177.10137062 127.84484863 177.11170959 C126.2884509 177.11436222 124.73203098 177.11115908 123.17565918 177.10179138 C110.35160685 176.68347735 110.35160685 176.68347735 99.88769531 183.20861816 Z " fill="#000000" transform="translate(253.759765625,31.35302734375)"/>
<path d="M0 0 C13.86121602 10.71003309 23.65462761 26.50310688 26 44 C27.28551912 62.25790564 24.38918734 78.95954933 12.828125 93.78515625 C10.63574556 96.29127275 8.36642316 98.65848656 6 101 C5.40960938 101.62390625 4.81921875 102.2478125 4.2109375 102.890625 C-2.50009299 109.45383543 -12.15393588 114.05131196 -21 117 C-20.46375 117.09796875 -19.9275 117.1959375 -19.375 117.296875 C-16.57574783 117.83094285 -13.78866842 118.41309047 -11 119 C-9.83726563 119.23332031 -8.67453125 119.46664062 -7.4765625 119.70703125 C-0.14499706 121.33544183 6.62688626 123.48616096 13.45703125 126.61328125 C14.29533981 126.99402802 15.13364838 127.37477478 15.99736023 127.76705933 C29.5288096 133.99781661 42.79201927 140.80563134 56.09405518 147.50750732 C61.96421059 150.46446871 67.83723449 153.41571136 73.71159935 156.36429977 C75.72568613 157.37632904 77.73833068 158.39117897 79.75080872 159.40640259 C86.2393459 162.6725351 92.75491555 165.8747619 99.32495117 168.97412109 C99.96504529 169.27879618 100.60513941 169.58347126 101.26463032 169.89737892 C104.49382177 171.4881551 104.49382177 171.4881551 108 172 C108.38979538 171.20708557 108.77959076 170.41417114 109.18119812 169.597229 C112.86130985 162.11665794 116.55301828 154.64195071 120.25778484 147.17355728 C122.16192347 143.33400182 124.06154405 139.49234818 125.95092773 135.64550781 C127.77531351 131.93142423 129.61144883 128.2233699 131.45578957 124.51915741 C132.15648607 123.10669979 132.85296251 121.69214035 133.54508018 120.27545929 C134.51716845 118.28756786 135.50415641 116.30776022 136.49487305 114.32910156 C137.05224655 113.20103088 137.60962006 112.07296021 138.18388367 110.91070557 C141.06255442 106.29703472 144.77755917 103.49212595 150 102 C155.24665744 101.52303114 158.55844889 102.13766706 163 105 C167.20048533 108.96712504 168.7483319 113.32762974 169 119 C166.99081025 127.56081322 162.37545246 135.40073487 158.2804184 143.11448288 C156.34884285 146.76743909 154.45954787 150.44231276 152.5625 154.11328125 C150.16681993 158.74372617 147.75979166 163.36698334 145.30664062 167.96728516 C132.78503644 190.20311178 132.78503644 190.20311178 130.56982422 215.06201172 C131.1770144 220.62045536 129.84988468 224.31550206 127 229 C126.5875 229.76054687 126.175 230.52109375 125.75 231.3046875 C120.13684067 240.77689388 111.47161552 246.88491438 101 250 C81.13858038 254.68818198 64.23808788 243.94882516 47.1875 235.25 C45.03107018 234.15922415 42.87417273 233.0693723 40.71679688 231.98046875 C35.47242171 229.33094889 30.23394852 226.67005275 25 224 C24.99853344 224.87483567 24.99706688 225.74967134 24.99555588 226.65101719 C24.9584969 247.94217729 24.89949417 269.23317808 24.81609726 290.52420902 C24.77629564 300.82042259 24.74390883 311.1165596 24.72900391 321.4128418 C24.71599323 330.38756399 24.68904345 339.36211782 24.64538693 348.3367452 C24.62275903 353.0883421 24.60709012 357.83973123 24.60811615 362.5913868 C24.60886197 367.06565047 24.59094243 371.53945462 24.55883217 376.0135994 C24.55032757 377.65383369 24.54858706 379.29411948 24.55419731 380.93436623 C24.56085069 383.17891084 24.5428873 385.42199906 24.51898193 387.66639709 C24.51345118 389.54823747 24.51345118 389.54823747 24.50780869 391.46809483 C23.77687564 396.55187201 21.79970468 400.36390484 17.9375 403.875 C14.79421471 405.70013339 12.21491538 406.12744477 8.65544128 406.14717102 C7.76808792 406.15432632 6.88073456 406.16148163 5.9664917 406.16885376 C4.51004242 406.17288712 4.51004242 406.17288712 3.02416992 406.17700195 C1.99949112 406.18357315 0.97481232 406.19014435 -0.08091736 406.19691467 C-3.47712271 406.21665064 -6.87328385 406.22831029 -10.26953125 406.23828125 C-12.00834847 406.24439454 -12.00834847 406.24439454 -13.78229332 406.25063133 C-19.91646522 406.27149221 -26.05061474 406.28579452 -32.18481445 406.29516602 C-38.52356669 406.30623727 -44.86196854 406.34064579 -51.20059681 406.38033772 C-56.07249103 406.40646754 -60.94430125 406.41485459 -65.81625938 406.41844749 C-68.15304623 406.42332194 -70.48982912 406.43496018 -72.82654762 406.45348549 C-76.09664419 406.47780137 -79.36582726 406.47692546 -82.63598633 406.4699707 C-84.08332657 406.48918579 -84.08332657 406.48918579 -85.55990601 406.50878906 C-91.19851737 406.46508185 -94.63991303 405.93011445 -99 402 C-103.25235829 397.11305629 -103.5637007 393.32688659 -103.45410156 387.14892578 C-103.45468567 386.27998184 -103.45526978 385.4110379 -103.45587158 384.51576233 C-103.45309645 381.65853196 -103.42203176 378.80235945 -103.390625 375.9453125 C-103.38316057 373.95849172 -103.37746859 371.97166355 -103.37347412 369.98483276 C-103.35823372 364.76667803 -103.31896546 359.54897174 -103.2746582 354.33099365 C-103.23367121 349.00197414 -103.21545577 343.67288185 -103.1953125 338.34375 C-103.15246982 327.89563678 -103.08423765 317.44785575 -103 307 C-103.61950531 306.80133835 -104.23901062 306.6026767 -104.87728882 306.397995 C-106.09504501 306.00122307 -106.09504501 306.00122307 -107.33740234 305.59643555 C-108.14253265 305.3358989 -108.94766296 305.07536224 -109.77719116 304.80693054 C-119.93372555 301.11987583 -127.40599253 290.92490952 -131.95703125 281.58984375 C-134.20858776 275.99890005 -135.25153573 270.95066268 -135.2746582 264.92578125 C-135.2823246 263.92163429 -135.2823246 263.92163429 -135.29014587 262.89720154 C-135.303948 260.70220778 -135.30309074 258.5075318 -135.30078125 256.3125 C-135.30467634 254.76660041 -135.30901266 253.22070188 -135.31376648 251.67480469 C-135.32121086 248.43697646 -135.32095261 245.19925725 -135.31567383 241.96142578 C-135.30991398 237.85445242 -135.32673375 233.74793518 -135.3500185 229.64103699 C-135.36491283 226.44583618 -135.36560595 223.25074086 -135.36250877 220.05551147 C-135.36301523 218.54396673 -135.36812271 217.03241497 -135.37832069 215.52090454 C-135.54123474 187.97459514 -126.06457377 164.55709967 -106.69921875 144.6328125 C-91.78101804 130.52034112 -74.6419082 123.78326262 -55 119 C-58.02594741 116.98270173 -60.64189755 116.00706081 -64.0625 114.8125 C-70.50580953 112.37120161 -75.62159405 109.2656323 -81 105 C-81.68578125 104.48953125 -82.3715625 103.9790625 -83.078125 103.453125 C-94.63351841 94.26340268 -102.50949592 79.42705736 -105 65 C-105.29620163 61.22474995 -105.32494402 57.47296947 -105.3125 53.6875 C-105.32861328 52.71876953 -105.34472656 51.75003906 -105.36132812 50.75195312 C-105.37220745 34.44385198 -98.46387435 18.68054949 -87.20458984 6.95874023 C-63.63289207 -16.35823765 -26.9573601 -19.05804832 0 0 Z " fill="#000000" transform="translate(135,74)"/>
</svg>
