<?xml version="1.0" encoding="UTF-8"?>
<svg version="1.1" xmlns="http://www.w3.org/2000/svg" width="512" height="512">
<path d="M0 0 C10.56 0 21.12 0 32 0 C32 15.84 32 31.68 32 48 C47.84 48 63.68 48 80 48 C80 32.16 80 16.32 80 0 C90.56 0 101.12 0 112 0 C112 15.84 112 31.68 112 48 C127.84 48 143.68 48 160 48 C160 32.16 160 16.32 160 0 C170.56 0 181.12 0 192 0 C192 15.84 192 31.68 192 48 C206.13423241 47.84273082 206.13423241 47.84273082 220.26782227 47.63964844 C234.73490384 47.49959623 247.39054261 48.89348268 260.375 55.8125 C261.03927002 56.15506836 261.70354004 56.49763672 262.38793945 56.85058594 C267.73251821 59.68379368 272.42738034 63.04020565 277 67 C278.18916016 67.89525391 278.18916016 67.89525391 279.40234375 68.80859375 C288.93320406 76.8489135 295.93673712 88.30001253 300 100 C300.35304199 100.98637451 300.70608398 101.97274902 301.06982422 102.98901367 C304.7649965 114.74586092 304.45125376 126.20866249 304.25 138.4375 C304.1675 145.553125 304.085 152.66875 304 160 C319.84 160 335.68 160 352 160 C352 170.56 352 181.12 352 192 C336.16 192 320.32 192 304 192 C304 207.84 304 223.68 304 240 C319.84 240 335.68 240 352 240 C352 250.56 352 261.12 352 272 C336.16 272 320.32 272 304 272 C304 287.84 304 303.68 304 320 C319.84 320 335.68 320 352 320 C352 330.56 352 341.12 352 352 C336.16 352 320.32 352 304 352 C304.15726918 366.13423241 304.15726918 366.13423241 304.36035156 380.26782227 C304.50040377 394.73490384 303.10651732 407.39054261 296.1875 420.375 C295.84493164 421.03927002 295.50236328 421.70354004 295.14941406 422.38793945 C292.31620632 427.73251821 288.95979435 432.42738034 285 437 C284.40316406 437.79277344 283.80632812 438.58554687 283.19140625 439.40234375 C275.1510865 448.93320406 263.69998747 455.93673712 252 460 C251.01362549 460.35304199 250.02725098 460.70608398 249.01098633 461.06982422 C237.25413908 464.7649965 225.79133751 464.45125376 213.5625 464.25 C206.446875 464.1675 199.33125 464.085 192 464 C192 479.84 192 495.68 192 512 C181.44 512 170.88 512 160 512 C160 496.16 160 480.32 160 464 C144.16 464 128.32 464 112 464 C112 479.84 112 495.68 112 512 C101.44 512 90.88 512 80 512 C80 496.16 80 480.32 80 464 C64.16 464 48.32 464 32 464 C32 479.84 32 495.68 32 512 C21.44 512 10.88 512 0 512 C0 496.16 0 480.32 0 464 C-14.13423241 464.15726918 -14.13423241 464.15726918 -28.26782227 464.36035156 C-42.73490384 464.50040377 -55.39054261 463.10651732 -68.375 456.1875 C-69.03927002 455.84493164 -69.70354004 455.50236328 -70.38793945 455.14941406 C-75.73251821 452.31620632 -80.42738034 448.95979435 -85 445 C-85.79277344 444.40316406 -86.58554688 443.80632812 -87.40234375 443.19140625 C-96.93320406 435.1510865 -103.93673712 423.69998747 -108 412 C-108.35304199 411.01362549 -108.70608398 410.02725098 -109.06982422 409.01098633 C-112.7649965 397.25413908 -112.45125376 385.79133751 -112.25 373.5625 C-112.12625 362.8890625 -112.12625 362.8890625 -112 352 C-127.84 352 -143.68 352 -160 352 C-160 341.44 -160 330.88 -160 320 C-144.16 320 -128.32 320 -112 320 C-112 304.16 -112 288.32 -112 272 C-127.84 272 -143.68 272 -160 272 C-160 261.44 -160 250.88 -160 240 C-144.16 240 -128.32 240 -112 240 C-112 224.16 -112 208.32 -112 192 C-127.84 192 -143.68 192 -160 192 C-160 181.44 -160 170.88 -160 160 C-144.16 160 -128.32 160 -112 160 C-112.15726918 145.86576759 -112.15726918 145.86576759 -112.36035156 131.73217773 C-112.50040377 117.26509616 -111.10651732 104.60945739 -104.1875 91.625 C-103.84493164 90.96072998 -103.50236328 90.29645996 -103.14941406 89.61206055 C-100.31620632 84.26748179 -96.95979435 79.57261966 -93 75 C-92.10474609 73.81083984 -92.10474609 73.81083984 -91.19140625 72.59765625 C-83.1510865 63.06679594 -71.69998747 56.06326288 -60 52 C-58.52043823 51.47043701 -58.52043823 51.47043701 -57.01098633 50.93017578 C-45.25413908 47.2350035 -33.79133751 47.54874624 -21.5625 47.75 C-14.446875 47.8325 -7.33125 47.915 0 48 C0 32.16 0 16.32 0 0 Z M160 160 C160 223.36 160 286.72 160 352 C170.56 352 181.12 352 192 352 C192 288.64 192 225.28 192 160 C181.44 160 170.88 160 160 160 Z M22 172 C21.29230469 172.50015625 20.58460938 173.0003125 19.85546875 173.515625 C9.42623638 181.66153431 2.50051758 195.05632275 0.72115421 208.03369713 C-0.06988207 215.23803796 -0.13459603 222.37735007 -0.11352539 229.61962891 C-0.1132427 230.96098834 -0.11340284 232.30234793 -0.1139679 233.64370728 C-0.11425269 237.25458403 -0.10840769 240.86542699 -0.10139394 244.47629595 C-0.09510715 248.26124426 -0.09455241 252.04619351 -0.09336853 255.83114624 C-0.09027083 262.98484601 -0.08207865 270.13853034 -0.07201904 277.29222333 C-0.06080922 285.44223757 -0.05533522 293.59225258 -0.05032361 301.74227262 C-0.0398946 318.49485885 -0.0215687 335.24742384 0 352 C10.56 352 21.12 352 32 352 C32 333.52 32 315.04 32 296 C47.84 296 63.68 296 80 296 C80 314.48 80 332.96 80 352 C90.56 352 101.12 352 112 352 C112.04527045 334.50958936 112.08206082 317.01922927 112.10362434 299.52877617 C112.11390593 291.4063697 112.12790612 283.28400241 112.15087891 275.16162109 C112.17090881 268.07632072 112.18373905 260.99104874 112.18817699 253.90572083 C112.19076823 250.15940019 112.19679254 246.41316074 112.21146011 242.6668663 C112.22519636 239.12924907 112.22919084 235.59174523 112.22621536 232.05410385 C112.22701428 230.16026093 112.2376909 228.2664299 112.24884033 226.37261963 C112.20422804 207.49181659 108.9045649 191.36818169 96 177 C83.93095856 165.26730889 70.13078617 160.56538922 53.65258789 160.63647461 C41.34557622 160.89058837 31.87604469 164.74413043 22 172 Z " fill="#000000" transform="translate(160,0)"/>
<path d="M0 0 C5.92511698 3.58055456 10.34704999 8.97751115 12.5625 15.5 C12.80300903 18.18928528 12.80300903 18.18928528 12.78955078 21.11645508 C12.78939972 22.21721878 12.78924866 23.31798248 12.78909302 24.45210266 C12.77877045 25.6293541 12.76844788 26.80660553 12.7578125 28.01953125 C12.7549826 29.23323898 12.75215271 30.44694672 12.74923706 31.69743347 C12.73805308 35.56922311 12.7129513 39.44078041 12.6875 43.3125 C12.67746792 45.93944978 12.66834246 48.56640319 12.66015625 51.19335938 C12.63982226 57.62906752 12.60066905 64.06427404 12.5625 70.5 C-3.2775 70.5 -19.1175 70.5 -35.4375 70.5 C-35.52949824 62.81303606 -35.60909208 55.12799447 -35.65722656 47.44091797 C-35.67729933 44.82789627 -35.70456358 42.21491925 -35.73925781 39.60205078 C-35.78796435 35.83875478 -35.81051311 32.07605451 -35.828125 28.3125 C-35.84877014 27.15073242 -35.86941528 25.98896484 -35.89068604 24.79199219 C-35.89287144 16.83129617 -34.86621205 11.41268532 -29.47265625 5.2578125 C-28.82167969 4.71898437 -28.17070312 4.18015625 -27.5 3.625 C-26.85160156 3.07070312 -26.20320312 2.51640625 -25.53515625 1.9453125 C-18.47077988 -2.92213491 -7.84396301 -3.47595223 0 0 Z " fill="#000000" transform="translate(227.4375,193.5)"/>
</svg>
